<svg xmlns="http://www.w3.org/2000/svg" viewBox="0 0 451.58 87.46"><defs><style>.cls-1{fill:#fff;}</style></defs><title>Artboard 2</title><g id="Logo_Artwork" data-name="Logo Artwork"><path class="cls-1" d="M148.91,30.52h10.27v1.9h-8V37.6h6.59v1.89h-6.59V45.6h8v1.9H148.91Z"/><path class="cls-1" d="M161.76,30.52H167c6.59,0,9.45,3.82,9.45,8.49S173.61,47.5,167,47.5h-5.26Zm5.29,15c5.51,0,7.07-3.11,7.07-6.51s-1.56-6.51-7.07-6.51h-3v13Z"/><path class="cls-1" d="M178.76,39.66V30.52h2.32v9.17c0,4.39,2,6.31,5.09,6.31s5.09-1.92,5.09-6.31V30.52h2.21v9.14c0,5.75-3,8.32-7.36,8.32S178.76,45.41,178.76,39.66Z"/><path class="cls-1" d="M195.76,39c0-5.49,4.13-8.85,9-8.85a10.35,10.35,0,0,1,5.89,1.78v2.35a8.47,8.47,0,0,0-5.89-2.24c-3.9,0-6.68,2.72-6.68,7s2.78,7,6.68,7a8.51,8.51,0,0,0,5.89-2.23v2.35a10.42,10.42,0,0,1-5.89,1.78C199.89,47.87,195.76,44.5,195.76,39Z"/><path class="cls-1" d="M218.75,30.52h1.47l7.3,17H225.2l-2-4.75H215.7l-2,4.75h-2.21Zm3.65,10.39-3-7-3,7Z"/><path class="cls-1" d="M231.17,32.42h-6v-1.9h14.31v1.9h-6V47.5h-2.27Z"/><path class="cls-1" d="M241,30.52h2.27v17H241Z"/><path class="cls-1" d="M245.57,39a9,9,0,0,1,18,0,9,9,0,0,1-18,0Zm15.67,0c0-4.13-2.77-7.07-6.65-7.07s-6.67,2.94-6.67,7.07,2.77,7.08,6.67,7.08S261.24,43.11,261.24,39Z"/><path class="cls-1" d="M265.88,30.52h1.3l10.1,12.65V30.52h2.06v17H278l-10.1-12.65V47.5h-2.06Z"/><path class="cls-1" d="M286.61,30.52h10.27v1.9h-8V37.6h6.6v1.89h-6.6v8h-2.26Z"/><path class="cls-1" d="M298.43,39.66V30.52h2.32v9.17c0,4.39,2,6.31,5.1,6.31s5.09-1.92,5.09-6.31V30.52h2.21v9.14c0,5.75-3,8.32-7.36,8.32S298.43,45.41,298.43,39.66Z"/><path class="cls-1" d="M316.25,30.52h1.31l10.1,12.65V30.52h2.06v17h-1.3l-10.1-12.65V47.5h-2.07Z"/><path class="cls-1" d="M332.83,30.52h5.26c6.6,0,9.45,3.82,9.45,8.49s-2.85,8.49-9.45,8.49h-5.26Zm5.29,15c5.52,0,7.08-3.11,7.08-6.51s-1.56-6.51-7.08-6.51h-3v13Z"/><path class="cls-1" d="M2.29,52.25V49.58c1.25-.22,2.44-.74,2.64-2.18V6.31c-.2-1.44-1.39-2-2.64-2.19V1.46h18V4.13c-1.28.22-2.73.47-2.73,2.29V48.08s8.49.7,11.59-9.54l3.12,1.16-3.4,12.55Z"/><path class="cls-1" d="M106.94,1.46H96.7V4.13c1.29.12,2.79,0,2.55,2.22L94.7,31.21l-4-24.86c-.23-2.15,1-2.1,2.28-2.22V1.46H66.48V4.12c1.24.23,2.48.58,2.33,2.18L64.32,31.05,58.58,1.46H51.2l-5.29,30L41.54,6.67c-.07-2.11,1.81-2.42,3.11-2.54V1.46H26.27V4.12c1.24.23,2.43.75,2.64,2.19l9.63,45.93H47l5.46-23.7,3.83,23.69H66L74.7,6a2,2,0,0,1,4,0l8.53,46.24H96.3l8.41-45.78c.28-2.32,3-2.33,3-2.33V1.46h-5"/><path class="cls-1" d="M124.29,45.7a2.78,2.78,0,0,0,1.37-1.17c.28-.39.57.22,1,.11,1-.61,2.33-.38,3.24-1.22A4,4,0,0,0,132.59,42l-1.48-.11c-.34-.22-.91-.56-.68-1.11.91-.22,1-1.17,1.87-1.44-7.21.72-14,2.77-21,3.88L97.43,46.36l-2.84.84c-.85.66-2.16.11-2.9,1-1.47-.5-2.1.89-3.41.78-.28-.12-.51.1-.7.32l-.94-.15v.38c-5.06,1.67-10.17,3.17-15.11,5.17a58.39,58.39,0,0,1-7.38,3.1c-2.62.56-4.72,2.56-7.5,2.89-3.58,1.44-6.76,3.61-10.45,4.66C44.72,67,42.45,66.68,41,68.23c-2.21-.16-3.29,2.33-5.45,2.39a106.76,106.76,0,0,0-9.54,6c-.46.39-1.25.78-1.59,1.45.85.44.91,1.16,1.36,1.77-.34,1.5,2.1,1.67,1.19,3.17,2.62-.06-.45,2.94,2.45,2.38.56,1,2.21.62,3,.28,2.72-1.33,5-3.66,7.89-4.66,1.59-1,3.07-2.28,4.94-2.66,2.79-2.17,6.19-3.61,9.37-5.17,1-1.27,2.56-.94,3.58-2,2.56-1.49,5.63-1.88,8.18-3.49.85.39,1.08-.61,1.76-.67,4.72-1.66,9.09-4.05,14-5.16,4-1.94,8.52-2.66,12.55-4.55,1.93-.56,3.81-1.06,5.74-1.61,1.7-.17,3.63-1.17,5.45-1.17.8-.66,1.93-.39,2.84-.66l2.61-.67.12-.28c3.29-.83,7.15-1,10.39-2.38h-1.93a2.93,2.93,0,0,1,1.93-1c2.78,0,5.17-1.33,7.73-2l-7.05.49-.45-.38c1.19-.89,2.9-.45,4.26-1,1-1,2.21-.33,3.12-1.33-1.76.89-4,.56-6,.83l-.22-.27C123.39,45.48,123.9,45.81,124.29,45.7Zm7.28-.09c-.63,0-.74,0-1.14.3a1,1,0,0,0-.45.58,11.1,11.1,0,0,0,3-.79A6.53,6.53,0,0,0,131.57,45.61Z"/><polygon class="cls-1" points="123.72 24.35 123.72 7.32 126.42 7.32 126.42 22.06 134.43 22.06 134.43 24.35 123.72 24.35"/><polygon class="cls-1" points="136.33 24.35 136.33 7.32 147.04 7.32 147.04 9.62 139.04 9.62 139.04 14.23 145.63 14.23 145.63 16.53 139.04 16.53 139.04 22.06 147.04 22.06 147.04 24.35 136.33 24.35"/><path class="cls-1" d="M162.85,24.35l-2-4.64h-7.18l-2,4.64h-2.69l7.5-17h1.75l7.5,17Zm-3-6.88-2.63-6.06-2.64,6.06Z"/><path class="cls-1" d="M174.47,24.82c-5.36,0-9.25-3.78-9.25-9S169.11,7,174.47,7a10.67,10.67,0,0,1,6,1.79l.09.06v2.9a9.41,9.41,0,0,0-6.1-2.45A6.17,6.17,0,0,0,168,15.84c0,3.94,2.66,6.69,6.46,6.69a9,9,0,0,0,4.11-.88V18.24H175.1V16h6.18V23l-.14.06-.45.2A14.85,14.85,0,0,1,174.47,24.82Z"/><path class="cls-1" d="M191.8,24.7c-4.89,0-7.58-3-7.58-8.35V7.2H187v9.18c0,3.89,1.69,5.95,4.87,5.95s4.87-2.06,4.87-5.95V7.2h2.65v9.15C199.37,21.74,196.68,24.7,191.8,24.7Z"/><polygon class="cls-1" points="202.47 24.35 202.47 7.32 213.18 7.32 213.18 9.62 205.18 9.62 205.18 14.23 211.77 14.23 211.77 16.53 205.18 16.53 205.18 22.06 213.18 22.06 213.18 24.35 202.47 24.35"/><path class="cls-1" d="M227.55,24.82a7,7,0,0,1-7.3-7.1,7.29,7.29,0,0,1,14.58,0A7,7,0,0,1,227.55,24.82Zm0-12.3a4.89,4.89,0,0,0-5,5.2,5,5,0,1,0,10,0A4.88,4.88,0,0,0,227.55,12.52Z"/><polygon class="cls-1" points="236.81 24.45 236.81 10.99 245.31 10.99 245.31 12.89 239.03 12.89 239.03 16.42 244.2 16.42 244.2 18.31 239.03 18.31 239.03 24.45 236.81 24.45"/><path class="cls-1" d="M310.58,24.65V12.94l-5.46,11.71h-1.81L297.84,13c0,.06,0,11.68,0,11.68h-2.51v-17h2.57l6.42,13.47,6.42-13.47h2.45v17Z"/><path class="cls-1" d="M283.49,25.12c-5.35,0-9.24-3.78-9.24-9s3.89-9,9.24-9,9.21,3.78,9.21,9S288.83,25.12,283.49,25.12Zm0-15.67c-3.8,0-6.45,2.75-6.45,6.69a6.44,6.44,0,1,0,12.87,0C289.91,12.2,287.27,9.45,283.49,9.45Z"/><path class="cls-1" d="M266.17,24.65,262,12.92l-4.14,11.73h-1.73l-6-17h2.78l4.17,12.54,4.11-12.54H263s4.1,12.48,4.12,12.53,4.16-12.53,4.16-12.53h2.68l-6,17Z"/><polygon class="cls-1" points="316.66 24.65 316.66 7.63 327.36 7.63 327.36 9.92 319.36 9.92 319.36 14.54 325.95 14.54 325.95 16.83 319.36 16.83 319.36 22.36 327.36 22.36 327.36 24.65 316.66 24.65"/><polygon class="cls-1" points="342.56 24.65 332.79 12.7 332.79 24.65 330.29 24.65 330.29 7.63 331.91 7.63 341.68 19.58 341.68 7.63 344.19 7.63 344.19 24.65 342.56 24.65"/><polygon class="cls-1" points="358.32 24.65 350.83 7.63 353.63 7.63 359.26 20.51 364.88 7.63 367.57 7.63 360.08 24.65 358.32 24.65"/><path class="cls-1" d="M376.7,25.12c-5.35,0-9.24-3.78-9.24-9s3.89-9,9.24-9,9.22,3.78,9.22,9S382,25.12,376.7,25.12Zm0-15.67c-3.8,0-6.45,2.75-6.45,6.69a6.44,6.44,0,1,0,12.88,0C383.13,12.2,380.49,9.45,376.7,9.45Z"/><polygon class="cls-1" points="391.86 24.65 391.86 9.92 385.84 9.92 385.84 7.63 400.59 7.63 400.59 9.92 394.56 9.92 394.56 24.65 391.86 24.65"/><polygon class="cls-1" points="402.66 24.65 402.66 7.63 413.37 7.63 413.37 9.92 405.37 9.92 405.37 14.54 411.95 14.54 411.95 16.83 405.37 16.83 405.37 22.36 413.37 22.36 413.37 24.65 402.66 24.65"/><path class="cls-1" d="M427.37,24.84c-2.09,0-3.7-1.05-4.91-3.21l-2.17-3.83h-2.11v6.85h-2.71v-17h5.82c3.61,0,5.76,1.9,5.76,5.08a4.67,4.67,0,0,1-4,4.89L425,20.69c1,1.73,1.92,2.08,3,2.08a4.21,4.21,0,0,0,1.18-.17v2A6.26,6.26,0,0,1,427.37,24.84Zm-6.08-9.34c2.55,0,3.09-1.51,3.09-2.79s-.54-2.79-3.09-2.79h-3.11V15.5Z"/><path class="cls-1" d="M436.17,25a8.16,8.16,0,0,1-5.82-2.08l-.08-.09.63-2.56a7.07,7.07,0,0,0,5.27,2.49c2,0,3.34-1.08,3.34-2.68,0-1.45-.61-2.39-3.85-3.24s-4.89-2.58-4.89-5.05c0-2.67,2.34-4.53,5.68-4.53a7.65,7.65,0,0,1,4.86,1.6l-.63,2.24a7.92,7.92,0,0,0-4.23-1.6c-1.95,0-3.12.85-3.12,2.29,0,.85.37,1.91,3.26,2.66,3.79,1,5.48,2.65,5.48,5.44C442.07,23.41,439,25,436.17,25Z"/><path class="cls-1" d="M445.67,11.71A2.23,2.23,0,1,1,448,9.49,2.25,2.25,0,0,1,445.67,11.71Zm0-4.16a1.94,1.94,0,1,0,2,1.94A2,2,0,0,0,445.67,7.55Zm.56,3.24-.63-1h-.26v1h-.69V8.15h1.2c.66,0,.93.38.93.81a.74.74,0,0,1-.5.73l.77,1.1Zm-.89-2.2v.73h.34c.28,0,.4-.12.4-.35a.35.35,0,0,0-.4-.38Z"/></g></svg>