<svg xmlns="http://www.w3.org/2000/svg" viewBox="0 0 1272.14 471.64"><defs><style>.cls-1{fill:#bb29bb;}.cls-2,.cls-3{fill:#fff;}.cls-3{font-size:37.45px;font-family:Agenda-Medium, Agenda;font-weight:500;}</style></defs><title>Vote411-logo_web_color_sm</title><g id="Logo_with_tagline" data-name="Logo with tagline"><path id="Speech_Bubble" data-name="Speech Bubble" class="cls-1" d="M724.24,0H37.53A37.53,37.53,0,0,0,0,37.53V319a37.53,37.53,0,0,0,37.53,37.53H135.9v85c-2.24,35.64,29.22,34.08,39.69,23.56l85-108.56H724.24A37.53,37.53,0,0,0,761.77,319V37.53A37.53,37.53,0,0,0,724.24,0Z"/><g id="Vote"><path class="cls-2" d="M313,268.34c-48.92,0-93.29-35.55-93.29-90.08S264,88.17,313,88.17s93.28,35.56,93.28,90.09S361.87,268.34,313,268.34Zm0-129.11c-19.79,0-35.29,18.18-35.29,39.56s15.5,39,35.29,39,35.28-17.65,35.28-39S332.74,139.23,313,139.23Z"/><path class="cls-2" d="M512.18,145.94V258.27a5.26,5.26,0,0,1-5.25,5.26H460.51a5.26,5.26,0,0,1-5.26-5.26V145.67a5.27,5.27,0,0,0-5.26-5.26H417.2a5.26,5.26,0,0,1-5.26-5.25V100a5.27,5.27,0,0,1,5.26-5.26H550a5.27,5.27,0,0,1,5.26,5.26v35.46a5.27,5.27,0,0,1-5.26,5.26H517.44A5.26,5.26,0,0,0,512.18,145.94Z"/><path class="cls-2" d="M574.57,258.27V100a5.27,5.27,0,0,1,5.26-5.26h119a5.26,5.26,0,0,1,5.26,5.26v35.39a5.26,5.26,0,0,1-5.26,5.26h-73a3.43,3.43,0,0,0-3.44,3.43v12.78a3.44,3.44,0,0,0,3.44,3.44h64.14a5.26,5.26,0,0,1,5.26,5.26v27.19a5.26,5.26,0,0,1-5.26,5.26H625.78a3.44,3.44,0,0,0-3.44,3.43V214a3.44,3.44,0,0,0,3.44,3.43h73a5.25,5.25,0,0,1,5.26,5.26v35.57a5.26,5.26,0,0,1-5.26,5.26h-119A5.27,5.27,0,0,1,574.57,258.27Z"/><path class="cls-2" d="M214.51,96.87a5.2,5.2,0,0,0-4.34-2.3H168a5.27,5.27,0,0,0-5,3.7l-11.88,38.17-8.52,26.92c-.92,2.83-1.8,5.83-2.64,8.92l-6.8,21.85a248.71,248.71,0,0,0-7.52-30.77L105,98.4a5.25,5.25,0,0,0-5-3.67H54.18a5.26,5.26,0,0,0-5,6.91l52.44,158.54a5.25,5.25,0,0,0,5,3.6H158.1a5.25,5.25,0,0,0,5-3.61l52.18-158.54A5.2,5.2,0,0,0,214.51,96.87Z"/></g><g id="_411" data-name="411"><path class="cls-2" d="M1070.35,274.49h-51.76a4.13,4.13,0,0,1-4.13-4.13V173.22a4.13,4.13,0,0,0-4.13-4.13H991.19a4.13,4.13,0,0,1-4.13-4.13V120.23a4.11,4.11,0,0,1,3.35-4.11c15.4-2.57,25.7-13.05,30.6-29a4.15,4.15,0,0,1,3.94-3h45.42a4.11,4.11,0,0,1,4.11,4.13V270.36A4.13,4.13,0,0,1,1070.35,274.49Z"/><path class="cls-2" d="M1195.87,274.49h-51.76a4.13,4.13,0,0,1-4.13-4.13V173.22a4.13,4.13,0,0,0-4.14-4.13h-19.13a4.13,4.13,0,0,1-4.13-4.13V120.23a4.11,4.11,0,0,1,3.34-4.11c15.41-2.57,25.71-13.05,30.61-29a4.15,4.15,0,0,1,3.94-3h45.42a4.11,4.11,0,0,1,4.11,4.13V270.36A4.13,4.13,0,0,1,1195.87,274.49Z"/><path class="cls-2" d="M962.48,187.62H949a4.14,4.14,0,0,1-4.14-4.14V88.24a4.13,4.13,0,0,0-4.13-4.13H891.9a4.13,4.13,0,0,0-3.37,1.74L813.24,191.91a4.12,4.12,0,0,0-.77,2.39v41.83a4.14,4.14,0,0,0,4.14,4.14h68.44a4.13,4.13,0,0,1,4.13,4.13v25.89a4.13,4.13,0,0,0,4.13,4.13h47.44a4.13,4.13,0,0,0,4.13-4.13V244.4a4.13,4.13,0,0,1,4.14-4.13h13.46a4.14,4.14,0,0,0,4.14-4.14V191.75A4.14,4.14,0,0,0,962.48,187.62Zm-68.88-1.45a4.08,4.08,0,0,1-4.08,4.08H871.46a4.07,4.07,0,0,1-3.38-6.36l18.07-26.71a4.08,4.08,0,0,1,7.45,2.29Z"/></g><text class="cls-3" transform="translate(1223.61 111.04)">SM</text></g></svg>