<?xml version="1.0" standalone="no"?><!DOCTYPE svg PUBLIC "-//W3C//DTD SVG 1.1//EN" "http://www.w3.org/Graphics/SVG/1.1/DTD/svg11.dtd"><svg width="100%" height="100%" viewBox="0 0 119 75" version="1.1" xmlns="http://www.w3.org/2000/svg" xmlns:xlink="http://www.w3.org/1999/xlink" xml:space="preserve" style="fill-rule:evenodd;clip-rule:evenodd;stroke-linejoin:round;stroke-miterlimit:1.41421;"><g><g><rect x="0.340101" y="-4.41789" width="118.714" height="84.3976" style="fill:#fff;fill-rule:nonzero;"/><rect x="11.0949" y="56.8111" width="97.206" height="10.857" style="fill:#b30739;fill-rule:nonzero;"/><rect x="53.4881" y="40.5267" width="54.8129" height="10.857" style="fill:#b30739;fill-rule:nonzero;"/><rect x="53.4881" y="24.2411" width="54.8129" height="10.857" style="fill:#b30739;fill-rule:nonzero;"/><rect x="11.0949" y="24.2411" width="36.1886" height="27.1426" style="fill:#002e63;fill-rule:nonzero;"/><path d="M20.7909,12.6259l0,-0.0463486c0,-1.83367 -1.27989,-3.43442 -3.16822,-3.43442c-1.95489,0 -3.12307,1.5544 -3.12307,3.38808l0,0.0463432c0,1.83248 1.28107,3.43323 3.16822,3.43323c1.95489,0 3.12306,-1.5544 3.12306,-3.38689ZM11.1294,12.6259l0,-0.0463486c0,-3.57346 2.78675,-6.47311 6.53847,-6.47311c3.73033,0 6.4945,2.85331 6.4945,6.42677l0,0.0463432c0,3.57347 -2.78675,6.47311 -6.53966,6.47311c-3.73033,0 -6.49331,-2.85331 -6.49331,-6.42677Z" style="fill:#002e63;fill-rule:nonzero;"/><path d="M24.4286,6.33815l3.61743,0l2.69644,8.32936l2.71901,-8.32936l3.54969,0l-4.74045,12.5291l-3.10168,0l-4.74045,-12.5291Z" style="fill:#002e63;fill-rule:nonzero;"/><path d="M45.8278,11.5813c-0.202024,-1.57698 -1.10044,-2.64415 -2.53838,-2.64415c-1.41536,0 -2.33754,1.0434 -2.60612,2.64415l5.1445,0ZM37.3344,12.6259l0,-0.0463486c0,-3.54969 2.44925,-6.47311 5.95498,-6.47311c4.02148,0 5.86466,3.22526 5.86466,6.7512c0,0.279267 -0.0225759,0.603696 -0.0451572,0.928125l-8.38165,0c0.337502,1.60075 1.41536,2.43618 2.94362,2.43618c1.1456,0 1.97747,-0.370778 2.92104,-1.27632l1.95489,1.78733c-1.12302,1.43794 -2.74041,2.31972 -4.92109,2.31972c-3.61743,0 -6.29129,-2.62157 -6.29129,-6.42677Z" style="fill:#002e63;fill-rule:nonzero;"/><path d="M51.69,6.33815l3.41541,0l0,2.5051c0.696388,-1.71602 1.8206,-2.82953 3.84203,-2.73684l0,3.68873l-0.179443,0c-2.26862,0 -3.66259,1.41536 -3.66259,4.38513l0,4.59428l-3.41541,0l0,-12.4364Z" style="fill:#002e63;fill-rule:nonzero;"/><path d="M60.1371,17.1275l1.46171,-2.32091c1.30247,0.974474 2.67386,1.48548 3.79687,1.48548c0.988732,0 1.43794,-0.371964 1.43794,-0.928125l0,-0.0463486c0,-0.766504 -1.16818,-1.02082 -2.49441,-1.43913c-1.68513,-0.509818 -3.59485,-1.32267 -3.59485,-3.73508l0,-0.0463486c0,-2.52887 1.97746,-3.94423 4.40414,-3.94423c1.52826,0 3.1908,0.53358 4.49327,1.43794l-1.30247,2.43618c-1.19076,-0.718974 -2.3827,-1.15986 -3.25854,-1.15986c-0.830679,0 -1.25731,0.370778 -1.25731,0.858015l0,0.0463432c0,0.696393 1.1456,1.02201 2.44807,1.48548c1.68513,0.579929 3.6412,1.41536 3.6412,3.68873l0,0.0475345c0,2.76061 -2.00005,4.01316 -4.60735,4.01316c-1.68513,0 -3.57227,-0.579929 -5.16827,-1.87883Z" style="fill:#002e63;fill-rule:nonzero;"/><path d="M80.2682,11.5813c-0.202024,-1.57698 -1.10044,-2.64415 -2.53839,-2.64415c-1.41655,0 -2.33754,1.0434 -2.6073,2.64415l5.14569,0ZM71.7749,12.6259l0,-0.0463486c0,-3.54969 2.44925,-6.47311 5.95497,-6.47311c4.02148,0 5.86347,3.22526 5.86347,6.7512c0,0.279267 -0.02139,0.603696 -0.0451572,0.928125l-8.38046,0c0.33631,1.60075 1.41536,2.43618 2.94362,2.43618c1.1456,0 1.97746,-0.370778 2.92104,-1.27632l1.95489,1.78733c-1.12421,1.43794 -2.7416,2.31972 -4.92108,2.31972c-3.61743,0 -6.29129,-2.62157 -6.29129,-6.42677Z" style="fill:#002e63;fill-rule:nonzero;"/><path d="M93.2525,14.3894l0,-0.626277c-0.583492,-0.279272 -1.34762,-0.464656 -2.17949,-0.464656c-1.46052,0 -2.36012,0.603696 -2.36012,1.71721l0,0.0463432c0,0.950707 0.765318,1.50806 1.86576,1.50806c1.59599,0 2.67386,-0.904358 2.67386,-2.18068ZM85.4115,15.2011l0,-0.0463486c0,-2.71427 1.99885,-3.96801 4.85216,-3.96801c1.21452,0 2.09037,0.209156 2.94361,0.511004l0,-0.209156c0,-1.46171 -0.875836,-2.27337 -2.58354,-2.27337c-1.30365,0 -2.22465,0.255505 -3.32628,0.672626l-0.853255,-2.6905c1.32623,-0.603696 2.62869,-0.998241 4.6739,-0.998241c1.86456,0 3.21338,0.509818 4.06663,1.39159c0.899609,0.928125 1.30366,2.29714 1.30366,3.96801l0,7.21585l-3.3037,0l0,-1.34525c-0.830673,0.950701 -1.97746,1.57698 -3.64001,1.57698c-2.26862,0 -4.13319,-1.34525 -4.13319,-3.80519Z" style="fill:#002e63;fill-rule:nonzero;"/><path d="M98.4861,17.1275l1.46052,-2.32091c1.30365,0.974474 2.67386,1.48548 3.79687,1.48548c0.989923,0 1.43912,-0.371964 1.43912,-0.928125l0,-0.0463486c0,-0.766504 -1.16937,-1.02082 -2.4944,-1.43913c-1.68513,-0.509818 -3.59486,-1.32267 -3.59486,-3.73508l0,-0.0463486c0,-2.52887 1.97628,-3.94423 4.40414,-3.94423c1.52707,0 3.18961,0.53358 4.49327,1.43794l-1.30366,2.43618c-1.19076,-0.718974 -2.38033,-1.15986 -3.25735,-1.15986c-0.83187,0 -1.25849,0.370778 -1.25849,0.858015l0,0.0463432c0,0.696393 1.1456,1.02201 2.44925,1.48548c1.68513,0.579929 3.64002,1.41536 3.64002,3.68873l0,0.0475345c0,2.76061 -2.00005,4.01316 -4.60617,4.01316c-1.68512,0 -3.57227,-0.579929 -5.16827,-1.87883Z" style="fill:#002e63;fill-rule:nonzero;"/><path d="M13.6868,33.8456l2.32566,0l1.73266,5.18372l1.74811,-5.18372l2.28169,0l-3.04701,7.79815l-1.99291,0l-3.0482,-7.79815Z" style="fill:#fff;fill-rule:nonzero;"/><path d="M28.1565,37.7589l0,-0.0285218c0,-1.14085 -0.82355,-2.1379 -2.03688,-2.1379c-1.25731,0 -2.00718,0.967342 -2.00718,2.10819l0,0.0297104c0,1.14084 0.822361,2.1379 2.0357,2.1379c1.25612,0 2.00837,-0.968531 2.00837,-2.10938ZM21.9461,37.7589l0,-0.0285218c0,-2.22465 1.79089,-4.0298 4.20211,-4.0298c2.39696,0 4.1736,1.77663 4.1736,4.00009l0,0.0297104c0,2.22346 -1.7897,4.0298 -4.20211,4.0298c-2.39815,0 -4.17359,-1.77663 -4.17359,-4.00128Z" style="fill:#fff;fill-rule:nonzero;"/><path d="M32.0699,39.3906l0,-3.66853l-0.924559,0l0,-1.87645l0.924559,0l0,-1.97866l2.19494,0l0,1.97866l1.81941,0l0,1.87645l-1.81941,0l0,3.30726c0,0.50625 0.216285,0.752245 0.707085,0.752245c0.40524,0 0.766506,-0.102201 1.0838,-0.275706l0,1.76356c-0.462278,0.273326 -0.995864,0.446831 -1.73385,0.446831c-1.34287,0 -2.25198,-0.534771 -2.25198,-2.32566Z" style="fill:#fff;fill-rule:nonzero;"/><path d="M42.3197,37.1089c-0.129531,-0.981603 -0.708274,-1.64591 -1.63283,-1.64591c-0.909112,0 -1.50093,0.650045 -1.67443,1.64591l3.30726,0ZM36.8602,37.7589l0,-0.0285218c0,-2.2092 1.5746,-4.0298 3.82659,-4.0298c2.58592,0 3.77073,2.00717 3.77073,4.2033c0,0.172317 -0.0142582,0.37553 -0.0285191,0.577554l-5.38693,0c0.216285,0.995864 0.90911,1.51637 1.89071,1.51637c0.737984,0 1.27157,-0.231735 1.87764,-0.795028l1.25731,1.11233c-0.722535,0.894852 -1.76237,1.44507 -3.16347,1.44507c-2.32447,0 -4.04406,-1.63165 -4.04406,-4.00128Z" style="fill:#fff;fill-rule:nonzero;"/></g></g></svg>