<?xml version="1.0" encoding="UTF-8" standalone="no"?>
<!DOCTYPE svg PUBLIC "-//W3C//DTD SVG 1.1//EN" "http://www.w3.org/Graphics/SVG/1.1/DTD/svg11.dtd">
<svg width="100%" height="100%" viewBox="0 0 756 282" version="1.1" xmlns="http://www.w3.org/2000/svg" xmlns:xlink="http://www.w3.org/1999/xlink" xml:space="preserve" xmlns:serif="http://www.serif.com/" style="fill-rule:evenodd;clip-rule:evenodd;stroke-linejoin:round;stroke-miterlimit:2;">
    <g transform="matrix(1,0,0,1,-18,-165.22)">
        <path id="Bottom_Line" d="M762.04,434.82L29.96,434.82L29.96,358.59L18,358.59L18,446.78L774,446.78L774,359.43L762.04,359.43L762.04,434.82Z" style="fill:rgb(156,24,47);fill-rule:nonzero;"/>
        <path id="FLR_OHSOS" d="M289.62,363.89C289.16,361.29 287.1,359.79 283.95,359.79C280.77,359.79 277.25,361.64 274.76,364.61C272.47,367.34 271.43,370.51 271.92,373.29C272.46,376.37 274.28,378.45 277.66,381.44C284.75,387.59 286.19,390.02 286.93,394.23C287.5,397.45 286.52,400.76 284.17,403.56C281.01,407.33 275.9,409.58 270.5,409.58C262.65,409.58 256.77,405.07 255.54,398.08C254.99,394.94 255.69,391.73 257.38,389.72C258.5,388.39 259.99,387.66 261.58,387.66C263.07,387.66 264.48,388.52 264.66,389.54C264.79,390.26 264.22,390.76 263.76,391.15C261.87,392.55 259.63,396.13 260.19,399.29C260.72,402.3 263.5,404.03 267.82,404.03C272.85,404.03 277.74,402.08 280.27,399.07C281.14,398.04 282.1,396.41 281.76,394.52C281.42,392.61 280.45,391.15 275.56,387.56C268.68,382.53 265.22,379.09 264.18,373.16C263.55,369.57 264.88,365.49 267.84,361.96C271.37,357.76 276.6,355.04 281.18,355.04C288.04,355.04 293.17,358.99 294.25,365.11C294.85,368.52 294.14,371.94 292.38,374.03C291.32,375.3 289.98,375.97 288.5,375.97C287.01,375.97 285.27,375.25 285.06,374.09C284.93,373.37 285.5,372.87 285.96,372.48C287.84,371.06 290.24,367.39 289.62,363.89ZM354.74,383.83C354.32,383.65 353.8,383.43 352.94,383.43C351.53,383.43 346.61,384.2 342.34,394.12C341.1,397.03 340.57,399.25 340.18,400.87C339.71,402.85 339.39,404.16 338,404.16C336.55,404.16 334.13,402.25 333.9,400.92C333.81,400.41 333.92,399.73 334.17,398.66C331.5,401.32 327,404.79 321.73,404.79C316.99,404.79 313.84,402.34 312.8,397.86C310.38,400.45 305.47,404.79 299.8,404.79C294.81,404.79 291.59,402.07 290.72,397.14C290.05,393.33 291.56,388.79 294.75,384.98C297.72,381.44 301.56,379.24 304.77,379.24C309.16,379.24 310.47,381.46 310.8,383.33C311.53,387.47 305.44,392.67 297.66,394.61C297.41,395.99 297.38,397.27 297.57,398.36C297.88,400.13 298.79,400.82 300.81,400.82C306.01,400.82 311.02,395.36 312.64,393.41C313.77,386.07 321.57,378.39 327.98,378.39C332,378.39 333.88,380.9 334.26,383.05C334.66,385.31 333.97,388.27 332.69,389.79C331.96,390.66 331.23,390.84 330.74,390.84C329.74,390.84 327.6,389.86 327.4,388.67C327.3,388.09 327.6,387.64 327.93,387.23C329.28,385.28 330.02,383.36 329.83,382.26C329.72,381.65 329.51,381.65 329.34,381.65C327.93,381.67 326.08,382.93 324.28,385.1C321.44,388.53 318.8,394.35 319.51,398.35C319.82,400.12 320.73,400.81 322.75,400.81C327.51,400.81 332.58,396.35 335.53,392.46L335.53,392.44C335.59,392.12 335.64,391.8 335.7,391.46C336.51,386.44 336.22,383.75 336.06,382.83C335.93,382.09 335.83,381.9 335.76,381.77C335.7,381.65 335.61,381.48 335.56,381.2C335.47,380.72 335.64,380.39 335.8,380.21C336.15,379.79 336.69,379.75 337.06,379.75C338.61,379.75 341.96,380.66 342.46,383.49C342.57,384.13 342.56,385 342.41,386.24C344.78,381.42 346.98,377.91 350.62,377.91C354.38,377.91 356.64,381.5 356.84,382.64C356.91,383.01 356.81,383.39 356.58,383.66C356.35,383.93 356,384.09 355.63,384.09C355.31,384.08 355.03,383.96 354.74,383.83ZM306.14,382.51C303.82,382.57 300.5,386.53 298.68,391.18C303.56,389.07 306.7,384.35 306.43,382.83C306.37,382.51 306.3,382.51 306.14,382.51ZM441.57,383.83C441.15,383.65 440.63,383.43 439.77,383.43C438.36,383.43 433.44,384.2 429.17,394.12C427.93,397.03 427.4,399.25 427.01,400.87C426.54,402.85 426.22,404.16 424.83,404.16C423.38,404.16 420.96,402.25 420.73,400.92C420.68,400.65 420.7,400.32 420.76,399.91C418.9,401.76 416.54,403.3 413.85,403.3C410.85,403.3 408.3,401.16 407.78,398.21C407.76,398.09 407.74,397.97 407.72,397.85C404.96,401.53 401.36,405.07 397.78,405.07C395.57,405.07 393.07,403.58 392.28,400.28C389.96,403.46 386.77,406.57 383.16,406.57C380.14,406.57 376.57,404.54 375.56,398.85C375.51,398.57 375.47,398.28 375.44,397.97C372.94,400.62 368.12,404.79 362.54,404.79C357.55,404.79 354.33,402.07 353.46,397.14C352.79,393.33 354.3,388.79 357.49,384.98C360.46,381.44 364.3,379.24 367.51,379.24C371.9,379.24 373.21,381.46 373.54,383.33C374.27,387.47 368.18,392.67 360.4,394.61C360.15,395.98 360.12,397.27 360.31,398.36C360.62,400.13 361.53,400.82 363.55,400.82C368.87,400.82 373.93,395.19 375.57,393.18C375.95,390.3 376.8,386.97 378.12,383.26C374.95,382.95 373.27,380.64 373.1,379.63C373.04,379.28 373.12,378.94 373.34,378.69C373.54,378.46 373.82,378.32 374.13,378.32C374.42,378.32 374.69,378.41 375,378.52C375.52,378.7 376.31,378.96 377.73,378.96C378.35,378.96 379.08,378.91 379.9,378.81L380.22,378.04C382.93,371.73 385.15,368.92 387.43,368.92C388.96,368.92 391.21,370.75 391.41,371.87C391.52,372.49 391.21,372.89 390.89,373.32C390.74,373.52 390.55,373.78 390.32,374.15C389.62,375.29 388.89,376.49 388.21,377.66C388.97,377.59 389.68,377.53 390.3,377.53C392.64,377.53 393.92,378.02 394.09,378.99C394.19,379.58 393.86,380.08 393.65,380.33C393.48,380.54 393.01,381.01 392.41,381.01C392.28,381.01 392.13,380.99 391.93,380.96C391.64,380.92 391.25,380.86 390.6,380.86C389.2,380.86 387.81,381.08 386.12,381.58C382.43,388.95 380.8,395.32 381.55,399.56C382.01,402.15 383.21,402.45 384.08,402.45C386.47,402.45 390.09,398.32 392.63,394.19C394.84,386.87 403.35,378.73 411.52,378.73C413.64,378.73 415.32,379.4 416.49,380.71C416.94,381.2 417.09,381.78 416.88,382.27C416.7,382.68 416.29,382.93 415.81,382.93C415.6,382.93 415.37,382.88 415.14,382.79C414.88,382.69 414.44,382.56 413.97,382.56C410.57,382.56 406.77,384.76 403.55,388.6C400.44,392.3 398.52,396.85 398.97,399.41C399.11,400.18 399.39,400.66 399.72,400.66C400.86,400.66 404.47,397.5 408.6,390.72C409.29,389.59 409.71,388.79 410.03,388.21C410.6,387.15 410.89,386.62 411.63,386.62C412.97,386.62 414.97,388.74 415.2,390.07C415.35,390.94 414.89,391.92 414.31,393.17C413.61,394.66 412.82,396.36 413.09,397.91C413.35,399.4 414.05,399.59 414.63,399.59C416.89,399.59 419.53,397.33 422.25,393.05C422.34,392.54 422.44,392.01 422.52,391.44C423.33,386.43 423.04,383.73 422.88,382.81C422.75,382.07 422.65,381.88 422.58,381.75C422.51,381.63 422.43,381.46 422.38,381.18C422.3,380.7 422.46,380.37 422.62,380.19C423.01,379.73 423.66,379.73 423.88,379.73C425.43,379.73 428.78,380.64 429.28,383.47C429.39,384.11 429.38,384.98 429.23,386.22C431.6,381.4 433.8,377.89 437.44,377.89C441.21,377.89 443.46,381.48 443.66,382.62C443.73,382.99 443.63,383.37 443.4,383.64C443.17,383.91 442.82,384.07 442.45,384.07C442.13,384.08 441.86,383.96 441.57,383.83ZM368.89,382.51C366.57,382.57 363.25,386.53 361.43,391.18C366.31,389.07 369.45,384.35 369.18,382.83C369.12,382.51 369.05,382.51 368.89,382.51ZM472.77,394.23C472.98,395.42 471.73,396.04 471.32,396.24C468.16,397.79 465.63,399.15 463.39,400.49C461.93,411.35 458.77,425.52 448.48,425.52C444.59,425.52 441.8,423.43 441.21,420.08C439.98,413.08 449.24,405.56 457.37,400.42C457.7,398.73 457.98,397.14 458.23,395.73C458.27,395.5 458.31,395.29 458.34,395.07C455.03,399.96 450.85,404.22 447.64,404.22C444.28,404.22 441.65,401.61 440.94,397.57C440.22,393.5 443.07,385.72 445.81,382.45C446.8,381.27 447.77,380.67 448.68,380.67C450.1,380.67 452.36,382.34 452.58,383.55C452.7,384.24 452.33,384.65 451.98,385.05C451.79,385.26 451.55,385.53 451.27,385.94C446.98,392.19 446.56,396.23 446.96,398.51C447.24,400.11 447.91,400.11 448.27,400.11C450.28,400.11 455.87,392.9 457.88,389.22L458.4,388.29C462.26,381.42 464.2,377.97 466.65,377.97C468.29,377.97 469.4,379.21 469.52,379.85C469.64,380.56 469.18,381.06 468.48,381.83C467.21,383.2 465.76,385.16 464.68,391.04C464.48,392.11 464.29,393.7 464.07,395.55C464.03,395.88 463.99,396.23 463.95,396.58C465.86,395.5 467.79,394.5 469.69,393.58C470.31,393.28 470.78,393.14 471.19,393.14C472.21,393.13 472.67,393.7 472.77,394.23ZM446.98,421.89C449.52,421.89 453.16,418.92 456.4,405.14C448.56,410.8 444.66,416.17 445.4,420.36C445.58,421.36 446.35,421.89 446.98,421.89ZM507.38,382.91C506.69,379.02 504.15,376.61 500.74,376.61C498.83,376.61 497.03,377.39 495.93,378.71C495.3,379.46 495.01,380.29 495.13,380.99C495.25,381.69 495.81,382.23 496.39,382.23L496.77,382.23L497.01,381.93C497.76,381.01 498.56,380.59 499.51,380.59C500.04,380.59 501.46,380.59 502.03,383.83C502.95,389.07 500.57,395.33 497.86,398.56C496.52,400.15 495.13,401.03 493.93,401.03C493.21,401.03 492.22,400.78 491.84,398.64C491.09,394.4 494.38,388.03 498.63,385.51C499.45,384.97 500.17,384.51 500,383.55C499.89,382.91 499.36,382.16 498.22,382.16C497.85,382.16 497.01,382.24 496.21,382.47C490.06,384.12 483.8,391.1 484.96,397.64C485.78,402.29 489.73,404.79 493.03,404.79C495.92,404.79 499.06,402.95 501.87,399.6C505.35,395.47 508.41,388.7 507.38,382.91ZM528.6,388.53C528.76,389.45 528.25,390.07 527.67,390.62C526.05,392.08 523.5,393.11 520.73,393.48C522.5,395.36 524.32,398.15 525.01,402.07C526.15,408.53 524.51,416.14 521.12,420.18C519.63,421.95 517.92,422.89 516.17,422.89C513.03,422.89 509.14,419.98 508.01,413.6C507.1,408.46 507.63,400.69 509.46,392.2C508.18,391.44 507.5,389.79 507.59,387.72L507.64,386.67L508.75,387.02C509.33,387.2 509.93,387.39 510.52,387.55C513.36,376.51 518.47,364.02 523.87,364.02C525.73,364.02 527.89,365.57 528.09,366.69C528.22,367.43 527.66,367.8 527.35,367.99C527.17,368.11 526.94,368.25 526.66,368.51C524.01,370.77 519.62,378.88 516.67,388.77C517.45,388.84 518.21,388.88 518.93,388.88C522.65,388.88 524.72,388.22 525.43,387.94C526.33,387.59 526.83,387.46 527.22,387.46C527.97,387.43 528.48,387.84 528.6,388.53ZM517.63,418.63C519.49,416.41 521.43,409.69 520.22,402.84C519.44,398.41 517.78,395.04 515.66,393.54C515.57,393.54 515.48,393.53 515.4,393.52C513.51,401.62 513.1,408.78 514.16,414.81C514.67,417.73 515.53,419.41 516.5,419.41C516.8,419.4 517.22,419.12 517.63,418.63ZM573.59,372.46C573.13,372.86 572.56,373.35 572.69,374.07C572.9,375.23 574.63,375.95 576.13,375.95C577.61,375.95 578.95,375.28 580.01,374.01C581.76,371.92 582.48,368.5 581.88,365.09C580.8,358.97 575.67,355.02 568.81,355.02C564.23,355.02 558.99,357.73 555.47,361.94C552.51,365.47 551.18,369.55 551.81,373.14C552.86,379.07 556.32,382.51 563.19,387.54C568.08,391.13 569.05,392.59 569.39,394.5C569.72,396.39 568.76,398.02 567.9,399.05C565.37,402.07 560.48,404.01 555.45,404.01C551.13,404.01 548.35,402.28 547.82,399.27C547.26,396.1 549.51,392.53 551.39,391.13C551.85,390.73 552.42,390.24 552.29,389.52C552.11,388.5 550.7,387.64 549.21,387.64C547.62,387.64 546.13,388.37 545.01,389.7C543.32,391.71 542.62,394.92 543.17,398.06C544.4,405.04 550.27,409.56 558.13,409.56C563.53,409.56 568.64,407.31 571.8,403.54C574.15,400.75 575.12,397.43 574.56,394.21C573.82,390.01 572.37,387.57 565.29,381.42C561.91,378.43 560.09,376.35 559.55,373.27C559.06,370.49 560.09,367.32 562.39,364.59C564.88,361.62 568.41,359.77 571.58,359.77C574.72,359.77 576.79,361.26 577.24,363.87C577.85,367.39 575.45,371.06 573.59,372.46ZM669.33,393.14C667.27,396.93 660.51,404.8 652.81,404.8C648.61,404.8 645.65,402.85 644.3,399.27C642.11,402.52 638.54,406.58 634.46,406.58C631.45,406.58 627.87,404.55 626.86,398.86C626.79,398.48 626.74,398.08 626.71,397.66C624.78,400.2 621.64,403.3 617.85,403.3C614.85,403.3 612.3,401.16 611.78,398.21C611.76,398.09 611.74,397.97 611.72,397.85C608.96,401.53 605.36,405.07 601.78,405.07C599.57,405.07 597.07,403.58 596.28,400.28C593.96,403.46 590.77,406.57 587.16,406.57C584.15,406.57 580.57,404.54 579.56,398.85C578.76,394.31 580.42,388.05 582.12,383.25C578.95,382.94 577.27,380.63 577.1,379.62C577.04,379.27 577.12,378.93 577.34,378.68C577.54,378.45 577.82,378.31 578.13,378.31C578.42,378.31 578.69,378.4 579,378.51C579.52,378.69 580.31,378.95 581.73,378.95C582.35,378.95 583.08,378.9 583.9,378.8L584.22,378.03C586.93,371.72 589.15,368.91 591.43,368.91C592.96,368.91 595.21,370.74 595.41,371.86C595.52,372.48 595.21,372.88 594.89,373.31C594.74,373.51 594.54,373.77 594.32,374.14C593.62,375.28 592.89,376.47 592.21,377.65C592.97,377.58 593.68,377.52 594.3,377.52C596.64,377.52 597.92,378.01 598.09,378.98C598.17,379.41 598.01,379.89 597.65,380.32C597.48,380.53 597.01,381 596.41,381C596.28,381 596.13,380.98 595.93,380.95C595.64,380.91 595.25,380.85 594.6,380.85C593.2,380.85 591.81,381.07 590.12,381.57C586.43,388.94 584.8,395.32 585.55,399.55C586.01,402.14 587.21,402.44 588.08,402.44C590.47,402.44 594.09,398.31 596.63,394.18C598.84,386.86 607.35,378.72 615.52,378.72C617.64,378.72 619.32,379.39 620.49,380.7C620.94,381.19 621.09,381.77 620.88,382.26C620.7,382.67 620.29,382.92 619.81,382.92C619.6,382.92 619.37,382.87 619.14,382.78C618.88,382.68 618.44,382.55 617.97,382.55C614.57,382.55 610.77,384.75 607.55,388.59C604.44,392.29 602.52,396.84 602.97,399.4C603.11,400.17 603.39,400.65 603.72,400.65C604.86,400.65 608.47,397.49 612.6,390.71C613.29,389.58 613.72,388.78 614.03,388.2C614.6,387.14 614.89,386.61 615.63,386.61C616.97,386.61 618.97,388.73 619.2,390.06C619.35,390.93 618.89,391.91 618.31,393.16C617.61,394.65 616.82,396.35 617.09,397.9C617.35,399.39 618.05,399.58 618.63,399.58C621.11,399.58 624.12,396.75 627.12,391.62C627.57,389.08 628.35,386.27 629.42,383.23C626.25,382.92 624.57,380.61 624.39,379.6C624.33,379.25 624.42,378.91 624.63,378.65C624.83,378.42 625.11,378.28 625.42,378.28C625.71,378.28 625.98,378.37 626.29,378.48C626.81,378.66 627.6,378.92 629.02,378.92C629.64,378.92 630.37,378.87 631.19,378.77L631.51,378C634.22,371.69 636.44,368.88 638.72,368.88C640.25,368.88 642.5,370.71 642.7,371.83C642.81,372.45 642.5,372.85 642.18,373.28C642.03,373.48 641.84,373.74 641.61,374.11C640.82,375.4 640.12,376.54 639.5,377.62C640.26,377.55 640.97,377.49 641.59,377.49C643.93,377.49 645.21,377.98 645.38,378.95C645.48,379.54 645.15,380.04 644.94,380.29C644.77,380.49 644.3,380.97 643.7,380.97C643.57,380.97 643.42,380.95 643.22,380.92C642.93,380.88 642.54,380.82 641.89,380.82C640.49,380.82 639.1,381.04 637.41,381.54C633.72,388.91 632.09,395.29 632.84,399.52C633.3,402.11 634.5,402.41 635.37,402.41C637.37,402.41 640.58,399.39 643.58,394.7C643.92,387.41 651.39,379.2 657.77,379.2C662.16,379.2 663.47,381.42 663.8,383.29C664.53,387.43 658.44,392.63 650.66,394.57C650.41,395.94 650.38,397.23 650.57,398.32C650.88,400.09 651.79,400.78 653.81,400.78C659.32,400.78 664.91,394.68 667.09,391.45C667.51,390.74 667.94,390.45 668.57,390.45C669.04,390.45 669.58,390.72 669.72,391.48C669.84,392.11 669.67,392.54 669.33,393.14ZM659.14,382.51C656.82,382.57 653.5,386.53 651.68,391.18C656.56,389.07 659.7,384.35 659.43,382.83C659.37,382.51 659.3,382.51 659.14,382.51ZM212.91,376.45C213.01,376.46 213.1,376.47 213.2,376.47C215.14,376.47 217.13,373.51 217.15,371.41C217.23,369.73 215.64,367.8 213.96,367.51C213.83,367.48 213.69,367.47 213.56,367.47C211.67,367.47 209.8,370.07 209.79,372.72C209.79,374.8 211.35,376.16 212.91,376.45ZM232.78,399.61C229.97,402.95 226.84,404.8 223.94,404.8C220.78,404.8 217.02,402.5 215.99,398.22C213.92,401.1 210.7,404.44 206.92,404.44C204.67,404.44 202.07,403.13 200.8,399.65C200.7,399.36 200.6,399.06 200.52,398.74C200.48,398.6 200.44,398.47 200.41,398.33C200.37,398.38 200.33,398.44 200.29,398.49C199.12,400.04 197.6,401.69 195.81,402.81C194.52,403.62 193.09,404.15 191.55,404.15C190.59,404.15 189.69,403.96 188.86,403.63C186.77,402.81 185.2,401.09 184.81,398.92C184.59,397.68 184.7,396.44 184.99,395.24C185.17,394.52 185.41,393.81 185.69,393.12C186.29,391.65 187.06,390.29 187.73,389.12C187.8,389 187.86,388.88 187.93,388.76C188.6,387.57 189.28,386.31 189.19,385.82C189.18,385.75 189.16,385.72 189.16,385.72C189.16,385.72 189.13,385.71 189.07,385.71C188.38,385.71 186.9,386.77 185.14,388.51C181.7,391.9 177.13,397.9 175,403.96L174.94,404.12C174.52,405.22 174.08,406.35 172.64,406.35C171.48,406.35 170.11,405.59 169.74,403.47C169.16,400.19 169.85,392.4 171.35,384.84C171.05,384.99 170.76,385.1 170.46,385.23C169.59,385.61 168.74,385.94 167.89,386.18C167.29,386.35 166.63,386.49 165.86,386.63C162.28,395.54 154.29,405.72 143.25,405.72C135.39,405.72 128.34,400.47 127.45,393.09C126.99,389.28 127.36,384.13 128.84,381.51C127.36,380.63 123.24,379.02 122.56,376.71C121.43,372.82 123.16,368.62 126.32,364.85C131.25,358.98 139.95,355.03 147.98,355.03C158.84,355.03 166.37,360.93 168.11,370.8C168.6,373.57 168.49,376.78 167.81,380.16C169.39,379.53 169.88,379.5 172.7,378.15C173.37,376.25 174.2,373.52 175.01,371.69C175.94,369.29 177.11,366.83 178.5,364.89C182.37,358.37 186.97,353.7 191.33,353.7C194.97,353.7 198.27,356.16 199.18,359.56C201.41,367.87 190.58,377.76 178.46,382.23C177.18,386.43 176.14,390.84 175.43,394.83C179.8,387.66 185.63,381.1 190.12,381.1C192.54,381.1 194.84,382.97 195.24,385.26C195.58,387.21 194.48,389.27 193.31,391.45C192.8,392.4 192.29,393.36 191.9,394.32C191.52,395.22 191.26,396.12 191.21,397C191.19,397.39 191.19,397.77 191.25,398.15C191.45,399.29 192,399.75 193.13,399.75C195.29,399.75 197.92,397.27 200.52,392.77C201.56,387.34 204.87,379.6 208.24,379.6C209.67,379.6 211.92,381.27 212.14,382.48C212.25,383.12 211.96,383.57 211.55,384.18C211.43,384.36 211.29,384.57 211.13,384.83C207.13,391.42 205.73,395.41 206.29,398.57C206.55,400.02 207.13,400.32 207.98,400.32C210.47,400.32 213.58,397.23 216.52,391.84C216.61,391.66 216.69,391.51 216.78,391.39C218.66,387.21 222.81,383.63 227.12,382.47C227.92,382.24 228.76,382.16 229.13,382.16C230.26,382.16 230.8,382.91 230.91,383.54C231.08,384.5 230.37,384.97 229.54,385.5C225.28,388.02 222,394.39 222.74,398.63C223.12,400.77 224.11,401.02 224.83,401.02C226.03,401.02 227.42,400.14 228.76,398.55C231.47,395.32 233.86,389.05 232.93,383.82C232.36,380.58 230.94,380.58 230.41,380.58C229.46,380.58 228.66,381.01 227.91,381.92L227.67,382.22L227.29,382.22C226.71,382.22 226.15,381.67 226.03,380.98C225.91,380.28 226.2,379.45 226.83,378.7C227.93,377.39 229.73,376.6 231.64,376.6C235.05,376.6 237.59,379.01 238.28,382.9C239.31,388.7 236.26,395.47 232.78,399.61ZM179.87,376.26C180.13,376.16 180.39,376.06 180.65,375.96C189.82,372.26 197.03,365.31 195.61,359.99C195.48,359.49 195.02,358.33 193.71,358.33C191.66,358.33 189.5,359.93 187.39,362.51C184.38,366.2 182.08,370.39 179.87,376.26ZM157.34,387.11C156.85,387.1 156.37,387.09 155.88,387.08C155,387.06 154.13,387.04 153.26,387.03C147.48,386.98 141.39,385.82 135.16,383.59C133.31,387.45 132.64,391.22 133.22,394.51C133.97,398.76 136.74,401.1 141.03,401.1C146.92,401.1 153.23,395.65 157.34,387.11ZM160.79,368.02C159.8,362.42 155.93,359.08 150.42,359.08C141.47,359.08 126.04,365.82 128.62,374.52C128.69,374.76 130.03,375.99 131.33,375.87C135.42,369.25 142.03,364.15 146.62,364.15C150.08,364.15 152.73,366.65 152.96,367.95C153.02,368.31 152.94,368.64 152.72,368.9C152.55,369.1 152.24,369.33 151.66,369.33C147.78,369.33 142.22,373.2 138.16,378.65C142.98,380.31 147.62,381.23 151.64,381.32C152.48,381.34 153.34,381.37 154.2,381.4C155.65,381.45 157.16,381.5 158.64,381.5C158.94,381.5 159.24,381.5 159.54,381.49C161.03,376.66 161.47,371.9 160.79,368.02ZM57.61,307.28C57.61,303.71 56.74,302.3 53.82,302.3L47.22,302.3L47.22,316.15C47.22,319.18 47.87,319.94 49.82,319.94L54.47,319.94L54.47,330.98L18,330.98L18,319.94L21.79,319.94C23.85,319.94 24.39,319.18 24.39,316.15L24.39,273.94C24.39,270.91 23.85,270.15 21.79,270.15L18,270.15L18,259.11L78.5,259.11L78.5,279.57L67.9,279.57L66.06,274.59C64.11,270.37 62.6,270.15 56.97,270.15L47.23,270.15L47.23,291.36L53.83,291.36C56.75,291.36 57.62,290.28 57.62,286.71L57.62,284.11L67.36,284.11L67.36,309.87L57.62,309.87L57.62,307.28L57.61,307.28ZM110.86,287.48C113.02,279.8 117.9,276.44 124.71,276.44C133.26,276.44 138.46,282.82 138.46,292.68C138.46,301.23 133.7,306.43 126.45,306.43C121.47,306.43 117.36,302.97 117.36,298.2C117.36,294.84 118.87,292.14 121.58,290.3C120.82,289.87 119.85,289.65 118.87,289.65C113.35,289.65 111.19,294.52 110.86,304.04L110.86,316.6C110.86,319.52 111.62,319.96 113.02,319.96L116.27,319.96L116.27,331L84.77,331L84.77,319.96L87.58,319.96C88.99,319.96 89.74,319.53 89.74,316.6L89.74,292.9C89.74,289.87 89.31,289 87.58,289L84.33,289L84.33,277.96L97.43,277.96C103.17,277.96 108.04,277.31 110.85,276.66L110.85,287.48L110.86,287.48ZM166.06,287.48C166.49,288.78 166.82,290.08 166.82,291.59C166.82,296.68 162.6,300.47 156.86,300.47C150.15,300.47 146.36,297.11 146.36,290.95C146.36,281.32 156.1,276.45 173.53,276.45C192.58,276.45 199.61,281.43 199.61,295.17L199.61,316.6C199.61,319.09 200.15,319.96 201.67,319.96L204.48,319.96L204.48,331L183.48,331C180.99,328.62 179.91,326.56 178.72,322.88C176.12,328.4 168.87,332.51 161.08,332.51C150.8,332.51 144.74,326.45 144.74,318.22C144.74,303.28 163.14,300.9 178.51,298.2L178.51,295.28C178.51,289.65 176.24,287.05 170.28,287.05C168.55,287.04 167.15,287.26 166.06,287.48ZM178.51,309.99L178.51,306.09C171.04,307.28 164.44,309.01 164.44,315.18C164.44,318.43 166.71,320.59 169.85,320.59C175.59,320.6 178.51,316.27 178.51,309.99ZM236.52,285.75C239.77,279.47 245.72,276.44 253.95,276.44C265.42,276.44 271.38,283.15 271.38,297.65L271.38,316.59C271.38,319.51 272.14,319.95 273.54,319.95L276.35,319.95L276.35,330.99L245.83,330.99L245.83,319.95L248.1,319.95C249.51,319.95 250.26,319.52 250.26,316.59L250.26,297.97C250.26,291.8 248.53,289.53 244.2,289.53C239.33,289.53 236.84,292.89 236.84,301.22L236.84,316.59C236.84,319.51 237.6,319.95 239,319.95L241.27,319.95L241.27,330.99L210.75,330.99L210.75,319.95L213.56,319.95C214.97,319.95 215.73,319.52 215.73,316.59L215.73,292.89C215.73,289.86 215.19,288.99 213.56,288.99L210.75,288.99L210.75,277.95L223.2,277.95C228.94,277.95 233.81,277.3 236.51,276.65L236.51,285.75L236.52,285.75ZM282.19,319.95L285,319.95C286.41,319.95 287.16,319.52 287.16,316.59L287.16,274.05C287.16,271.02 286.62,270.15 285,270.15L281.75,270.15L281.75,259.11L294.85,259.11C300.69,259.11 305.57,258.46 308.27,257.81L308.27,303.27L320.61,291.9C321.8,290.82 321.15,288.98 319.53,288.98L315.2,288.98L315.2,277.94L345.72,277.94L345.72,288.98L341.72,288.98C339.88,288.98 338.69,289.85 337.28,291.04L330.25,296.88L342.48,317.55C343.67,319.61 344.86,319.93 345.94,319.93L347.89,319.93L347.89,330.97L316.93,330.97L316.93,319.93L318.99,319.93C320.29,319.93 320.4,318.74 319.75,317.22L314.88,308.78L308.28,314.73L308.28,316.57C308.17,319.49 309.04,319.93 310.44,319.93L312.71,319.93L312.71,330.97L282.19,330.97L282.19,319.95ZM384.26,319.95L388.05,319.95C390.11,319.95 390.65,319.19 390.65,316.05L390.65,273.95C390.65,270.92 390.11,270.16 388.05,270.16L384.26,270.16L384.26,259.12L420.74,259.12L420.74,270.16L416.09,270.16C414.14,270.16 413.49,270.92 413.49,273.95L413.49,319.95L419.77,319.95C426.16,319.95 427.78,319.52 429.19,315.51L432.33,304.9L444.24,304.9L444.24,330.98L384.28,330.98L384.28,319.95L384.26,319.95ZM474.2,287.48C474.63,288.78 474.96,290.08 474.96,291.59C474.96,296.68 470.74,300.47 465,300.47C458.29,300.47 454.5,297.11 454.5,290.95C454.5,281.32 464.24,276.45 481.67,276.45C500.72,276.45 507.75,281.43 507.75,295.17L507.75,316.6C507.75,319.09 508.29,319.96 509.81,319.96L512.62,319.96L512.62,331L491.62,331C489.13,328.62 488.05,326.56 486.86,322.88C484.26,328.4 477.01,332.51 469.22,332.51C458.94,332.51 452.88,326.45 452.88,318.22C452.88,303.28 471.28,300.9 486.65,298.2L486.65,295.28C486.65,289.65 484.38,287.05 478.42,287.05C476.69,287.04 475.28,287.26 474.2,287.48ZM486.64,309.99L486.64,306.09C479.17,307.28 472.57,309.01 472.57,315.18C472.57,318.43 474.84,320.59 477.98,320.59C483.72,320.6 486.64,316.27 486.64,309.99ZM571.5,296.24C581.24,298.84 584.71,305.01 585.25,315.07C585.47,318.64 586.44,319.94 589.15,319.94L590.67,319.94L590.67,330.98L573.78,330.98C564.8,330.98 561.33,321.89 560.47,311.82C559.93,305.11 558.52,300.89 551.59,300.89L547.69,300.89L547.69,316.04C547.69,319.07 548.34,319.94 550.29,319.94L554.08,319.94L554.08,330.98L518.9,330.98L518.9,319.94L522.69,319.94C524.64,319.94 525.29,319.07 525.29,316.04L525.29,273.94C525.29,271.02 524.64,270.15 522.69,270.15L518.9,270.15L518.9,259.11L560.03,259.11C577.24,259.11 586.44,264.96 586.44,279.13C586.43,288.45 581.24,293.86 571.5,296.24ZM547.69,291.59L552.02,291.59C560.46,291.59 563.82,288.67 563.82,280.66C563.82,273.08 560.79,270.27 553.32,270.27L547.69,270.27L547.69,291.59ZM596.07,304.47C596.07,287.69 608.08,276.44 626.16,276.44C643.8,276.44 655.6,287.59 655.6,304.47C655.6,321.25 643.69,332.5 625.62,332.5C607.76,332.5 596.07,321.36 596.07,304.47ZM634.38,305.44L634.38,303.49C634.38,291.69 631.89,287.9 625.83,287.9C619.88,287.9 617.28,291.69 617.28,303.49L617.28,305.44C617.28,317.24 619.77,320.92 625.83,320.92C631.89,320.92 634.38,317.13 634.38,305.44ZM663.49,314.64L677.24,314.64L677.24,321.89C679.3,322.43 681.68,322.65 684.49,322.65C688.82,322.65 691.53,321.14 691.53,317.89C691.53,314.21 687.52,313.34 680.81,311.94C672.48,309.99 662.73,306.85 662.73,295.16C662.73,283.58 671.5,276.44 687.3,276.44C696.39,276.44 704.08,278.71 708.19,280.66L708.19,293.87L695.09,293.87L695.09,287.27C693.57,286.73 690.87,286.3 688.6,286.3C684.38,286.3 681.89,288.03 681.89,290.85C681.89,294.64 686.11,295.07 692.28,296.48C700.51,298.43 710.68,301.57 710.68,313.58C710.68,325.49 702.02,332.52 685.89,332.52C676.15,332.52 668.25,330.03 663.48,328.3L663.48,314.64L663.49,314.64ZM739.47,308.37C739.79,316.27 744.34,319.95 751.7,319.95C758.3,319.95 761.77,316.49 763.71,312.37L773.56,319.41C769.66,326.88 761.98,332.51 747.48,332.51C728.21,332.51 717.82,321.04 717.82,304.37C717.82,287.59 729.19,276.44 746.94,276.44C765.34,276.44 774,287.15 774,306.2L774,308.36L739.47,308.36L739.47,308.37ZM739.15,299.27L753.98,299.27C753.76,290.5 751.71,287.36 747.05,287.36C741.96,287.37 739.58,290.72 739.15,299.27Z" style="fill:rgb(0,69,118);fill-rule:nonzero;"/>
        <path id="Top_Line" d="M334.73,210.28L29.96,210.28L29.96,235.29L18,235.29L18,198.32L334.73,198.32L334.73,210.28ZM462.84,198.32L455.73,204.24L462.97,210.27L762.04,210.27L762.04,235.28L774,235.28L774,198.31L462.84,198.31L462.84,198.32Z" style="fill:rgb(156,24,47);fill-rule:nonzero;"/>
        <g id="Burgee">
            <path d="M415.32,198.76L426.29,204.24L415.32,209.73L448.03,209.73L441.44,204.24L448.03,198.76L415.32,198.76Z" style="fill:rgb(156,24,47);fill-rule:nonzero;"/>
            <path d="M460.99,187.95L469.32,181.02L470.71,179.85L469.47,179.71L349.55,165.88L373.53,177.86L460.99,187.95Z" style="fill:rgb(156,24,47);fill-rule:nonzero;"/>
            <path d="M343.88,165.22L343.88,243.27L421.93,204.25L343.88,165.22ZM368,218.88C359.92,218.88 353.37,212.33 353.37,204.25C353.37,196.17 359.92,189.62 368,189.62C376.08,189.62 382.63,196.17 382.63,204.25C382.63,212.33 376.08,218.88 368,218.88Z" style="fill:rgb(0,69,118);fill-rule:nonzero;"/>
            <path d="M460.99,220.54L373.53,230.63L349.55,242.61L469.47,228.78L470.71,228.63L469.32,227.47L460.99,220.54Z" style="fill:rgb(156,24,47);fill-rule:nonzero;"/>
            <circle cx="368" cy="204.24" r="9.76" style="fill:rgb(156,24,47);"/>
        </g>
    </g>
</svg>
